<svg width="23" height="29" viewBox="0 0 23 29" fill="none" xmlns="http://www.w3.org/2000/svg">
<g filter="url(#filter0_bd_201_25)">
<mask id="path-1-inside-1_201_25" fill="white">
<path fill-rule="evenodd" clip-rule="evenodd" d="M4.06885 7.10076L4.06885 20.5461L18.5688 20.5461V7.10076H18.5393L11.3188 0.546143L4.09836 7.10076H4.06885ZM8.49344 11.8067L11.3188 16.3445L14.1443 11.8067L8.49344 11.8067Z"/>
</mask>
<path fill-rule="evenodd" clip-rule="evenodd" d="M4.06885 7.10076L4.06885 20.5461L18.5688 20.5461V7.10076H18.5393L11.3188 0.546143L4.09836 7.10076H4.06885ZM8.49344 11.8067L11.3188 16.3445L14.1443 11.8067L8.49344 11.8067Z" fill="#E6E6E6" fill-opacity="0.8" shape-rendering="crispEdges"/>
<path d="M4.06885 20.5461H3.56885V21.0461H4.06885V20.5461ZM4.06885 7.10076V6.60076H3.56885V7.10076H4.06885ZM18.5688 20.5461V21.0461H19.0688V20.5461H18.5688ZM18.5688 7.10076H19.0688L19.0688 6.60076H18.5688L18.5688 7.10076ZM18.5393 7.10076L18.2033 7.47098L18.3462 7.60076H18.5393V7.10076ZM11.3188 0.546143L11.6549 0.175931L11.3188 -0.129147L10.9828 0.175931L11.3188 0.546143ZM4.09836 7.10076V7.60076H4.29146L4.43443 7.47098L4.09836 7.10076ZM11.3188 16.3445L10.8944 16.6088L11.3188 17.2905L11.7433 16.6088L11.3188 16.3445ZM8.49344 11.8067V11.3067H7.59312L8.06899 12.0709L8.49344 11.8067ZM14.1443 11.8067L14.5687 12.0709L15.0446 11.3067H14.1443V11.8067ZM4.56885 20.5461L4.56885 7.10076H3.56885L3.56885 20.5461H4.56885ZM18.5688 20.0461L4.06885 20.0461V21.0461L18.5688 21.0461V20.0461ZM18.0688 7.10076V20.5461H19.0688V7.10076H18.0688ZM18.5393 7.60076H18.5688L18.5688 6.60076H18.5393L18.5393 7.60076ZM10.9828 0.916354L18.2033 7.47098L18.8754 6.73055L11.6549 0.175931L10.9828 0.916354ZM4.43443 7.47098L11.6549 0.916354L10.9828 0.175931L3.76229 6.73055L4.43443 7.47098ZM4.06885 7.60076H4.09836V6.60076H4.06885V7.60076ZM11.7433 16.0802L8.91789 11.5424L8.06899 12.0709L10.8944 16.6088L11.7433 16.0802ZM13.7198 11.5424L10.8944 16.0802L11.7433 16.6088L14.5687 12.0709L13.7198 11.5424ZM8.49344 12.3067L14.1443 12.3067V11.3067L8.49344 11.3067V12.3067Z" fill="#666666" fill-opacity="0.8" mask="url(#path-1-inside-1_201_25)"/>
</g>
<defs>
<filter id="filter0_bd_201_25" x="0.0688477" y="-3.45386" width="22.5" height="32" filterUnits="userSpaceOnUse" color-interpolation-filters="sRGB">
<feFlood flood-opacity="0" result="BackgroundImageFix"/>
<feGaussianBlur in="BackgroundImageFix" stdDeviation="2"/>
<feComposite in2="SourceAlpha" operator="in" result="effect1_backgroundBlur_201_25"/>
<feColorMatrix in="SourceAlpha" type="matrix" values="0 0 0 0 0 0 0 0 0 0 0 0 0 0 0 0 0 0 127 0" result="hardAlpha"/>
<feOffset dy="4"/>
<feGaussianBlur stdDeviation="2"/>
<feComposite in2="hardAlpha" operator="out"/>
<feColorMatrix type="matrix" values="0 0 0 0 0 0 0 0 0 0 0 0 0 0 0 0 0 0 0.25 0"/>
<feBlend mode="normal" in2="effect1_backgroundBlur_201_25" result="effect2_dropShadow_201_25"/>
<feBlend mode="normal" in="SourceGraphic" in2="effect2_dropShadow_201_25" result="shape"/>
</filter>
</defs>
</svg>
