<?xml version="1.0" standalone="no"?><!DOCTYPE svg PUBLIC "-//W3C//DTD SVG 1.1//EN" "http://www.w3.org/Graphics/SVG/1.1/DTD/svg11.dtd"><svg t="1693476033406" class="icon" viewBox="0 0 1024 1024" version="1.1" xmlns="http://www.w3.org/2000/svg" p-id="6889" xmlns:xlink="http://www.w3.org/1999/xlink" width="32" height="32"><path d="M519.51 122.197l212.65 136.704a74.667 74.667 0 0 1 2.773 123.734L552.32 512l182.613 129.365A74.667 74.667 0 0 1 732.16 765.1L519.51 901.803a53.333 53.333 0 0 1-82.177-44.886V593.493L274.517 708.821a32 32 0 1 1-36.992-52.224L437.333 515.03v-5.973l-199.808-141.61a32 32 0 0 1 36.992-52.225L437.333 430.55V167.083a53.333 53.333 0 0 1 82.176-44.886z m-18.177 432.128v283.051l196.182-126.123a10.667 10.667 0 0 0 0.426-17.664L501.333 554.325z m0-367.701v283.05l196.608-139.263a10.667 10.667 0 0 0-0.426-17.664L501.333 186.624z" p-id="6890" fill="#707070"></path></svg>