<?xml version="1.0" standalone="no"?><!DOCTYPE svg PUBLIC "-//W3C//DTD SVG 1.1//EN" "http://www.w3.org/Graphics/SVG/1.1/DTD/svg11.dtd"><svg t="1694081538656" class="icon" viewBox="0 0 1289 1024" version="1.1" xmlns="http://www.w3.org/2000/svg" p-id="5871" xmlns:xlink="http://www.w3.org/1999/xlink" width="20.140625" height="16"><path d="M345.532768 492.116471c99.710707-1.299825 144.677064 0.455111 149.504 2.075583 8.974653 3.020283 774.423273 390.081939 785.838976 398.253252h0.013791l8.171313 5.854384-372.111946 4.913132-372.115394 4.913131-8.119596-5.857832c-11.101953-8.005818-329.293576-406.596956-328.886734-409.703434 0.224108-1.689428 37.991434 0.848162 137.702142-0.448216z m18.083771 13.049967c-3.568485 0.048269-6.412929 0.617158-9.047058 1.71701-6.25433 2.609993-1.168808 7.385212 37.581145 35.25732l44.814653 32.240485 22.031516 0.541306c14.049832 0.344781 21.452283-0.77231 20.442074-3.082344-0.875744-1.992835-20.852364-16.877037-44.400916-33.08175-35.926195-24.720808-45.255973-29.895973-58.019771-32.178425-5.540633-0.989522-9.836606-1.461872-13.401643-1.413602z m147.193966 89.436229l-22.455596 0.296511c-19.845603 0.262034-21.514343 1.148121-14.356687 7.636903 53.27903 38.570667 56.392404 48.483125 112.071111 83.805953l26.972229 0.430976c14.832485 0.237899 27.86866-0.430976 28.968512-1.482559 2.344512-2.251421-59.69196-46.417886-101.869037-72.528161z m142.108444 118.677118c-9.722828 0.127569-18.494061 1.734249-19.493925 3.568484-2.048 3.76501 158.426936 126.486411 174.021387 133.078627 7.436929 3.140956 18.111354 4.147717 40.777266 3.851205 22.66936-0.29996 30.202828-1.551515 28.789225-4.771771-2.958222-6.75771-183.302896-129.21363-195.559865-132.792458-5.971609-1.741145-18.811259-3.061657-28.534088-2.93064z" fill="#4a2704" p-id="5872"></path><path d="M213.267825 431.955609c72.459205-0.196525 169.056539 19.824916 281.579313 62.360566l-281.979259 5.53029 3.68571 47.914235 2.765145 32.254276 58.054249 0.924014-118.873643 134.533603-158.495892-134.533603c69.11138 0 18.738855 1.227421 69.11138 1.841131l2.765145-75.562235c8.150626-48.841697 59.267879-75.038168 141.387852-75.265724z m-76.193185 101.082936l0.231003 75.562236H169.556471l-4.606276-75.562236z" fill="#4a2704" p-id="5873"></path></svg>