<svg width="24" height="29" viewBox="0 0 24 29" fill="none" xmlns="http://www.w3.org/2000/svg">
<g filter="url(#filter0_bd_201_19)">
<mask id="path-1-inside-1_201_19" fill="white">
<path fill-rule="evenodd" clip-rule="evenodd" d="M19.0879 13.5044L19.0879 0.059021L4.58789 0.059021L4.58789 13.5044H4.6174L11.8379 20.059L19.0584 13.5044H19.0879ZM14.6633 8.7985L11.8379 4.26068L9.01248 8.7985L14.6633 8.7985Z"/>
</mask>
<path fill-rule="evenodd" clip-rule="evenodd" d="M19.0879 13.5044L19.0879 0.059021L4.58789 0.059021L4.58789 13.5044H4.6174L11.8379 20.059L19.0584 13.5044H19.0879ZM14.6633 8.7985L11.8379 4.26068L9.01248 8.7985L14.6633 8.7985Z" fill="#E6E6E6" fill-opacity="0.8" shape-rendering="crispEdges"/>
<path d="M19.0879 0.059021L19.5879 0.059021V-0.440979L19.0879 -0.440979V0.059021ZM19.0879 13.5044V14.0044H19.5879V13.5044H19.0879ZM4.58789 0.059021V-0.440979L4.08789 -0.440979V0.059021L4.58789 0.059021ZM4.58789 13.5044H4.08789V14.0044H4.58789V13.5044ZM4.6174 13.5044L4.95347 13.1342L4.8105 13.0044H4.6174V13.5044ZM11.8379 20.059L11.5018 20.4292L11.8379 20.7343L12.174 20.4292L11.8379 20.059ZM19.0584 13.5044V13.0044H18.8653L18.7223 13.1342L19.0584 13.5044ZM11.8379 4.26068L12.2623 3.9964L11.8379 3.31471L11.4134 3.9964L11.8379 4.26068ZM14.6633 8.7985V9.2985H15.5636L15.0877 8.53422L14.6633 8.7985ZM9.01248 8.7985L8.58803 8.53422L8.11217 9.2985H9.01248V8.7985ZM18.5879 0.059021L18.5879 13.5044H19.5879L19.5879 0.059021L18.5879 0.059021ZM4.58789 0.559021L19.0879 0.559021V-0.440979L4.58789 -0.440979V0.559021ZM5.08789 13.5044L5.08789 0.059021L4.08789 0.059021L4.08789 13.5044H5.08789ZM4.6174 13.0044H4.58789V14.0044H4.6174V13.0044ZM12.174 19.6888L4.95347 13.1342L4.28133 13.8746L11.5018 20.4292L12.174 19.6888ZM18.7223 13.1342L11.5018 19.6888L12.174 20.4292L19.3944 13.8746L18.7223 13.1342ZM19.0879 13.0044H19.0584V14.0044H19.0879V13.0044ZM11.4134 4.52496L14.2388 9.06277L15.0877 8.53422L12.2623 3.9964L11.4134 4.52496ZM9.43693 9.06277L12.2623 4.52496L11.4134 3.9964L8.58803 8.53422L9.43693 9.06277ZM14.6633 8.2985L9.01248 8.2985V9.2985L14.6633 9.2985L14.6633 8.2985Z" fill="#666666" fill-opacity="0.8" mask="url(#path-1-inside-1_201_19)"/>
</g>
<defs>
<filter id="filter0_bd_201_19" x="0.587891" y="-3.94098" width="22.5" height="32" filterUnits="userSpaceOnUse" color-interpolation-filters="sRGB">
<feFlood flood-opacity="0" result="BackgroundImageFix"/>
<feGaussianBlur in="BackgroundImageFix" stdDeviation="2"/>
<feComposite in2="SourceAlpha" operator="in" result="effect1_backgroundBlur_201_19"/>
<feColorMatrix in="SourceAlpha" type="matrix" values="0 0 0 0 0 0 0 0 0 0 0 0 0 0 0 0 0 0 127 0" result="hardAlpha"/>
<feOffset dy="4"/>
<feGaussianBlur stdDeviation="2"/>
<feComposite in2="hardAlpha" operator="out"/>
<feColorMatrix type="matrix" values="0 0 0 0 0 0 0 0 0 0 0 0 0 0 0 0 0 0 0.25 0"/>
<feBlend mode="normal" in2="effect1_backgroundBlur_201_19" result="effect2_dropShadow_201_19"/>
<feBlend mode="normal" in="SourceGraphic" in2="effect2_dropShadow_201_19" result="shape"/>
</filter>
</defs>
</svg>
